<svg width="60" height="60" viewBox="0 0 60 60" fill="none" xmlns="http://www.w3.org/2000/svg">
<path d="M45.75 14.2749C45.5187 14.0432 45.244 13.8593 44.9416 13.7339C44.6391 13.6084 44.3149 13.5438 43.9875 13.5438C43.6601 13.5438 43.3359 13.6084 43.0334 13.7339C42.731 13.8593 42.4563 14.0432 42.225 14.2749L30 26.4749L17.775 14.2499C17.5436 14.0185 17.2688 13.8349 16.9664 13.7096C16.664 13.5844 16.3398 13.5199 16.0125 13.5199C15.6852 13.5199 15.3611 13.5844 15.0587 13.7096C14.7562 13.8349 14.4815 14.0185 14.25 14.2499C14.0186 14.4814 13.835 14.7562 13.7097 15.0586C13.5844 15.361 13.52 15.6851 13.52 16.0124C13.52 16.3398 13.5844 16.6639 13.7097 16.9663C13.835 17.2687 14.0186 17.5435 14.25 17.7749L26.475 29.9999L14.25 42.2249C14.0186 42.4564 13.835 42.7312 13.7097 43.0336C13.5844 43.336 13.52 43.6601 13.52 43.9874C13.52 44.3148 13.5844 44.6389 13.7097 44.9413C13.835 45.2437 14.0186 45.5185 14.25 45.7499C14.4815 45.9814 14.7562 46.165 15.0587 46.2903C15.3611 46.4155 15.6852 46.48 16.0125 46.48C16.3398 46.48 16.664 46.4155 16.9664 46.2903C17.2688 46.165 17.5436 45.9814 17.775 45.7499L30 33.5249L42.225 45.7499C42.4565 45.9814 42.7312 46.165 43.0336 46.2903C43.3361 46.4155 43.6602 46.48 43.9875 46.48C44.3148 46.48 44.639 46.4155 44.9414 46.2903C45.2438 46.165 45.5185 45.9814 45.75 45.7499C45.9815 45.5185 46.1651 45.2437 46.2903 44.9413C46.4156 44.6389 46.4801 44.3148 46.4801 43.9874C46.4801 43.6601 46.4156 43.336 46.2903 43.0336C46.1651 42.7312 45.9815 42.4564 45.75 42.2249L33.525 29.9999L45.75 17.7749C46.7 16.8249 46.7 15.2249 45.75 14.2749Z" fill="#545454"/>
</svg>
