<svg width="60" height="60" viewBox="0 0 60 60" fill="none" xmlns="http://www.w3.org/2000/svg">
<path d="M38.75 35.0001H36.775L36.075 34.3251C37.6374 32.51 38.7792 30.372 39.4189 28.0641C40.0585 25.7562 40.1801 23.3354 39.775 20.9751C38.6 14.0251 32.8 8.47506 25.8 7.62506C23.339 7.31372 20.8395 7.56949 18.4926 8.37278C16.1457 9.17607 14.0136 10.5056 12.2596 12.2596C10.5055 14.0137 9.17601 16.1457 8.37272 18.4926C7.56943 20.8395 7.31366 23.3391 7.625 25.8001C8.475 32.8001 14.025 38.6001 20.975 39.7751C23.3354 40.1802 25.7561 40.0586 28.064 39.4189C30.3719 38.7793 32.5099 37.6374 34.325 36.0751L35 36.7751V38.7501L45.625 49.3751C46.65 50.4001 48.325 50.4001 49.35 49.3751C50.375 48.3501 50.375 46.6751 49.35 45.6501L38.75 35.0001ZM23.75 35.0001C17.525 35.0001 12.5 29.9751 12.5 23.7501C12.5 17.5251 17.525 12.5001 23.75 12.5001C29.975 12.5001 35 17.5251 35 23.7501C35 29.9751 29.975 35.0001 23.75 35.0001Z" fill="#545454"/>
</svg>
