<svg width="60" height="60" viewBox="0 0 60 60" fill="none" xmlns="http://www.w3.org/2000/svg">
<path d="M10 45H50C51.375 45 52.5 43.875 52.5 42.5C52.5 41.125 51.375 40 50 40H10C8.625 40 7.5 41.125 7.5 42.5C7.5 43.875 8.625 45 10 45ZM10 32.5H50C51.375 32.5 52.5 31.375 52.5 30C52.5 28.625 51.375 27.5 50 27.5H10C8.625 27.5 7.5 28.625 7.5 30C7.5 31.375 8.625 32.5 10 32.5ZM7.5 17.5C7.5 18.875 8.625 20 10 20H50C51.375 20 52.5 18.875 52.5 17.5C52.5 16.125 51.375 15 50 15H10C8.625 15 7.5 16.125 7.5 17.5Z" fill="#545454"/>
</svg>
